# xmcd
# 
# Track frame offsets:
#     150
#     12483
#     25050
#     36028
#     50557
#     60030
#     73478
#     86785
#     100059
#     111455
#     125425
#     137718
#     150288
#     160424
#     182363
#     196944
#     209878
#     223892
#     241595
#     259066
#     276323
#     295664
#     328010
# 
# Disc length: 4613
# 
# Revision: 3
# Processed by: cddbd v1.5.2PL0 Copyright (c) Steve Scherf et al.
# Submitted via: BonkEnc v1.0.8
# 
DISCID=54120317
DTITLE=Marvin Gaye - Gold - Greatest Hits
DYEAR=2004
DGENRE=Soul
TTITLE0=Stubborn Kind of Fellow
TTITLE1=Can I Get a Witness
TTITLE2=Ain't No Mountain High Enough
TTITLE3=I Heard it Through the Grapevine
TTITLE4=Pride and Joy
TTITLE5=Ain't That Peculiar
TTITLE6=It Takes Two
TTITLE7=How Sweet it is (To Be Loved By You)
TTITLE8=Hitch Hike
TTITLE9=Your Precious Love
TTITLE10=What's the Matter with You Baby
TTITLE11=I'll Be Doggone
TTITLE12=Ain't Nothing Like the Real Thing
TTITLE13=Let's Get it on
TTITLE14=Mercy Mercy Me (The Ecology)
TTITLE15=Stop, Look and Listen (To Your Heart)
TTITLE16=Inner City Blues (Make Me Wanna Holler)
TTITLE17=I Want You
TTITLE18=What's Going on
TTITLE19=Trouble Man
TTITLE20=Got to Give it Up, Part 1
TTITLE21=Ego Tripping Out
TTITLE22=Sexual Healing
EXTD=YEAR: 2004 ID3G: 42
EXTT0=
EXTT1=
EXTT2=
EXTT3=
EXTT4=
EXTT5=
EXTT6=
EXTT7=
EXTT8=
EXTT9=
EXTT10=
EXTT11=
EXTT12=
EXTT13=
EXTT14=
EXTT15=
EXTT16=
EXTT17=
EXTT18=
EXTT19=
EXTT20=
EXTT21=
EXTT22=
PLAYORDER=
